<svg width="621" height="90" viewBox="0 0 621 90" fill="none" xmlns="http://www.w3.org/2000/svg">
<path d="M136.61 18.5844C143.837 18.5844 149.088 20.0909 152.363 23.1039C155.69 26.1169 157.354 30.2727 157.354 35.5714C157.354 37.961 156.99 40.2467 156.262 42.4286C155.534 44.5584 154.312 46.4805 152.597 48.1948C150.881 49.9091 148.62 51.2597 145.812 52.2467C143.057 53.2338 139.626 53.7273 135.519 53.7273H129.982V74.2208H120V18.5844H136.61ZM135.986 26.8442H129.982V45.4675H134.505C137.208 45.4675 139.496 45.1558 141.367 44.5325C143.291 43.8571 144.747 42.8182 145.734 41.4156C146.722 40.013 147.216 38.1948 147.216 35.961C147.216 32.8961 146.306 30.6104 144.487 29.1039C142.667 27.5974 139.834 26.8442 135.986 26.8442Z" fill="white"/>
<path d="M205.09 53.026C205.09 56.5584 204.622 59.6753 203.687 62.3766C202.751 65.0779 201.399 67.3896 199.631 69.3117C197.916 71.1818 195.784 72.6104 193.237 73.5974C190.741 74.5325 187.96 75 184.893 75C181.981 75 179.304 74.5325 176.86 73.5974C174.417 72.6104 172.285 71.1818 170.466 69.3117C168.698 67.3896 167.321 65.0779 166.333 62.3766C165.345 59.6753 164.851 56.5584 164.851 53.026C164.851 48.3506 165.657 44.4026 167.269 41.1818C168.88 37.9091 171.194 35.4416 174.209 33.7792C177.276 32.0649 180.89 31.2078 185.049 31.2078C189 31.2078 192.457 32.0649 195.42 33.7792C198.436 35.4416 200.801 37.9091 202.517 41.1818C204.232 44.4026 205.09 48.3506 205.09 53.026ZM174.911 53.026C174.911 55.987 175.249 58.5325 175.925 60.6623C176.653 62.7403 177.744 64.3247 179.2 65.4156C180.708 66.5065 182.631 67.0519 184.971 67.0519C187.362 67.0519 189.286 66.5065 190.741 65.4156C192.249 64.3247 193.341 62.7403 194.017 60.6623C194.693 58.5325 195.03 55.987 195.03 53.026C195.03 50.013 194.667 47.4935 193.939 45.4675C193.263 43.3896 192.171 41.8312 190.663 40.7922C189.208 39.7013 187.31 39.1558 184.971 39.1558C181.435 39.1558 178.862 40.3506 177.25 42.7403C175.691 45.1299 174.911 48.5584 174.911 53.026Z" fill="white"/>
<path d="M223.473 74.2208L207.408 31.987H217.78L226.202 56.3766C226.566 57.3636 226.904 58.4545 227.216 59.6493C227.528 60.7922 227.788 61.9351 227.996 63.0779C228.256 64.1688 228.412 65.1299 228.464 65.961H228.776C228.88 65.0779 229.062 64.0909 229.322 63C229.582 61.8571 229.867 60.7143 230.179 59.5714C230.543 58.4286 230.881 57.3636 231.193 56.3766L239.615 31.987H249.987L233.923 74.2208H223.473Z" fill="white"/>
<path d="M273.296 31.2078C277.091 31.2078 280.34 31.987 283.044 33.5455C285.799 35.0519 287.931 37.2338 289.438 40.0909C290.946 42.8961 291.7 46.3247 291.7 50.3766V55.3636H263.782C263.886 59.2078 264.952 62.1948 266.979 64.3247C269.007 66.4026 271.814 67.4416 275.402 67.4416C278.157 67.4416 280.6 67.1818 282.732 66.6623C284.915 66.0909 287.151 65.2857 289.438 64.2467V72.1169C287.359 73.1039 285.201 73.8312 282.966 74.2987C280.73 74.7662 278.053 75 274.934 75C270.827 75 267.161 74.2208 263.938 72.6623C260.767 71.0519 258.271 68.6364 256.452 65.4156C254.684 62.1948 253.8 58.1948 253.8 53.4156C253.8 48.5844 254.606 44.5325 256.218 41.2597C257.881 37.9351 260.169 35.4416 263.08 33.7792C265.992 32.0649 269.397 31.2078 273.296 31.2078ZM273.296 38.4545C270.697 38.4545 268.565 39.3117 266.901 41.026C265.29 42.6883 264.328 45.1818 264.016 48.5065H282.186C282.186 46.5325 281.848 44.7922 281.172 43.2857C280.548 41.7792 279.587 40.6104 278.287 39.7792C276.987 38.8961 275.324 38.4545 273.296 38.4545Z" fill="white"/>
<path d="M323.755 31.2078C324.379 31.2078 325.107 31.2338 325.939 31.2857C326.77 31.3377 327.472 31.4416 328.044 31.5974L327.186 40.7143C326.719 40.6104 326.095 40.5325 325.315 40.4805C324.587 40.3766 323.937 40.3247 323.365 40.3247C321.806 40.3247 320.298 40.5844 318.842 41.1039C317.439 41.5714 316.165 42.2987 315.021 43.2857C313.929 44.2208 313.046 45.4416 312.37 46.948C311.746 48.4545 311.434 50.2467 311.434 52.3247V74.2208H301.608V31.987H309.172L310.576 39.3117H311.044C311.876 37.8052 312.916 36.4545 314.163 35.2597C315.411 34.013 316.841 33.026 318.452 32.2987C320.116 31.5714 321.884 31.2078 323.755 31.2078Z" fill="white"/>
<path d="M372.098 53.026C372.098 56.5584 371.631 59.6753 370.695 62.3766C369.759 65.0779 368.407 67.3896 366.64 69.3117C364.924 71.1818 362.792 72.6104 360.245 73.5974C357.75 74.5325 354.968 75 351.901 75C348.99 75 346.312 74.5325 343.869 73.5974C341.425 72.6104 339.294 71.1818 337.474 69.3117C335.706 67.3896 334.329 65.0779 333.341 62.3766C332.353 59.6753 331.859 56.5584 331.859 53.026C331.859 48.3506 332.665 44.4026 334.277 41.1818C335.888 37.9091 338.202 35.4416 341.217 33.7792C344.285 32.0649 347.898 31.2078 352.057 31.2078C356.008 31.2078 359.465 32.0649 362.429 33.7792C365.444 35.4416 367.809 37.9091 369.525 41.1818C371.241 44.4026 372.098 48.3506 372.098 53.026ZM341.919 53.026C341.919 55.987 342.257 58.5325 342.933 60.6623C343.661 62.7403 344.752 64.3247 346.208 65.4156C347.716 66.5065 349.639 67.0519 351.979 67.0519C354.37 67.0519 356.294 66.5065 357.75 65.4156C359.257 64.3247 360.349 62.7403 361.025 60.6623C361.701 58.5325 362.039 55.987 362.039 53.026C362.039 50.013 361.675 47.4935 360.947 45.4675C360.271 43.3896 359.179 41.8312 357.672 40.7922C356.216 39.7013 354.318 39.1558 351.979 39.1558C348.444 39.1558 345.87 40.3506 344.259 42.7403C342.699 45.1299 341.919 48.5584 341.919 53.026Z" fill="white"/>
<path d="M392.082 29.1039C392.082 30.7662 392.004 32.4026 391.848 34.013C391.744 35.5714 391.64 36.7403 391.536 37.5195H392.16C393.044 36.0649 394.136 34.8961 395.435 34.013C396.735 33.0779 398.165 32.3766 399.724 31.9091C401.336 31.4416 403 31.2078 404.715 31.2078C407.887 31.2078 410.616 31.7532 412.904 32.8442C415.191 33.9351 416.933 35.6234 418.128 37.9091C419.376 40.1429 420 43.0779 420 46.7143V74.2208H410.174V48.6623C410.174 45.4416 409.55 43.0519 408.303 41.4935C407.055 39.9351 405.079 39.1558 402.376 39.1558C399.776 39.1558 397.723 39.7273 396.215 40.8701C394.708 41.961 393.642 43.5974 393.018 45.7792C392.394 47.9091 392.082 50.5325 392.082 53.6493V74.2208H382.256V15H392.082V29.1039Z" fill="white"/>
<path d="M89.5501 32.255C89.9188 36.0415 90.067 40.2723 89.972 45C89.0677 90 69.8311 90 44.986 90C26.4288 90 10.4972 89.9996 3.6211 71.2485C3.63362 70.8118 3.64889 70.376 3.66988 69.9407C3.90505 65.0627 4.71441 61.0841 6.71617 57.8628C10.5851 51.6371 20.0832 46.575 45.4184 46.575C70.6589 46.5487 83.6028 41.6522 89.5501 32.255Z" fill="white"/>
<path d="M44.986 0C63.5904 0 80.0631 0.00526047 86.7855 18.8987C86.412 22.6843 85.5731 25.8704 83.9159 28.5372C80.047 34.7629 70.5489 39.825 45.2136 39.825C19.8342 39.8514 6.88594 44.8011 0.983058 54.2997C0.781328 54.6243 0.589794 54.9527 0.406934 55.2836C0.139198 52.1476 1.84617e-05 48.7283 1.8149e-09 45C-0.000220758 2.28882e-05 20.1409 0 44.986 0Z" fill="white"/>
<path d="M498.8 47.25C498.8 53.25 497.65 58.275 495.35 62.325C493.1 66.375 489.825 69.425 485.525 71.475C481.275 73.525 476.125 74.55 470.075 74.55H455V21H471.65C477.2 21 482 22 486.05 24C490.1 26 493.225 28.95 495.425 32.85C497.675 36.7 498.8 41.5 498.8 47.25ZM488.75 47.55C488.75 43.3 488.1 39.8 486.8 37.05C485.5 34.3 483.575 32.275 481.025 30.975C478.475 29.625 475.35 28.95 471.65 28.95H464.6V66.525H470.375C476.575 66.525 481.175 64.95 484.175 61.8C487.225 58.6 488.75 53.85 488.75 47.55Z" fill="#565756"/>
<path d="M545.625 54.15C545.625 57.55 545.175 60.55 544.275 63.15C543.375 65.75 542.075 67.975 540.375 69.825C538.725 71.625 536.675 73 534.225 73.95C531.825 74.85 529.15 75.3 526.2 75.3C523.4 75.3 520.825 74.85 518.475 73.95C516.125 73 514.075 71.625 512.325 69.825C510.625 67.975 509.3 65.75 508.35 63.15C507.4 60.55 506.925 57.55 506.925 54.15C506.925 49.65 507.7 45.85 509.25 42.75C510.8 39.6 513.025 37.225 515.925 35.625C518.875 33.975 522.35 33.15 526.35 33.15C530.15 33.15 533.475 33.975 536.325 35.625C539.225 37.225 541.5 39.6 543.15 42.75C544.8 45.85 545.625 49.65 545.625 54.15ZM516.6 54.15C516.6 57 516.925 59.45 517.575 61.5C518.275 63.5 519.325 65.025 520.725 66.075C522.175 67.125 524.025 67.65 526.275 67.65C528.575 67.65 530.425 67.125 531.825 66.075C533.275 65.025 534.325 63.5 534.975 61.5C535.625 59.45 535.95 57 535.95 54.15C535.95 51.25 535.6 48.825 534.9 46.875C534.25 44.875 533.2 43.375 531.75 42.375C530.35 41.325 528.525 40.8 526.275 40.8C522.875 40.8 520.4 41.95 518.85 44.25C517.35 46.55 516.6 49.85 516.6 54.15Z" fill="#565756"/>
<path d="M571.819 75.3C567.969 75.3 564.619 74.575 561.769 73.125C558.969 71.625 556.794 69.35 555.244 66.3C553.744 63.2 552.994 59.25 552.994 54.45C552.994 49.45 553.819 45.4 555.469 42.3C557.169 39.15 559.494 36.85 562.444 35.4C565.394 33.9 568.769 33.15 572.569 33.15C575.119 33.15 577.394 33.4 579.394 33.9C581.394 34.4 583.094 35 584.494 35.7L581.719 43.125C580.169 42.525 578.619 42.025 577.069 41.625C575.519 41.175 574.019 40.95 572.569 40.95C570.319 40.95 568.444 41.45 566.944 42.45C565.494 43.45 564.419 44.95 563.719 46.95C563.019 48.9 562.669 51.375 562.669 54.375C562.669 57.275 563.019 59.7 563.719 61.65C564.469 63.6 565.569 65.075 567.019 66.075C568.469 67.025 570.269 67.5 572.419 67.5C574.719 67.5 576.744 67.225 578.494 66.675C580.244 66.125 581.894 65.375 583.444 64.425V72.6C581.894 73.55 580.219 74.225 578.419 74.625C576.669 75.075 574.469 75.3 571.819 75.3Z" fill="#565756"/>
<path d="M620.642 62.775C620.642 65.475 619.992 67.775 618.692 69.675C617.392 71.525 615.467 72.925 612.917 73.875C610.417 74.825 607.342 75.3 603.692 75.3C600.842 75.3 598.392 75.1 596.342 74.7C594.292 74.3 592.342 73.675 590.492 72.825V64.8C592.492 65.75 594.717 66.55 597.167 67.2C599.617 67.85 601.892 68.175 603.992 68.175C606.592 68.175 608.467 67.775 609.617 66.975C610.767 66.175 611.342 65.1 611.342 63.75C611.342 62.95 611.117 62.225 610.667 61.575C610.217 60.925 609.342 60.25 608.042 59.55C606.742 58.8 604.767 57.875 602.117 56.775C599.517 55.725 597.342 54.675 595.592 53.625C593.892 52.575 592.592 51.325 591.692 49.875C590.842 48.375 590.417 46.5 590.417 44.25C590.417 40.6 591.867 37.85 594.767 36C597.667 34.1 601.492 33.15 606.242 33.15C608.742 33.15 611.092 33.4 613.292 33.9C615.542 34.35 617.792 35.1 620.042 36.15L617.042 43.125C615.792 42.575 614.542 42.1 613.292 41.7C612.092 41.25 610.867 40.9 609.617 40.65C608.417 40.4 607.192 40.275 605.942 40.275C603.892 40.275 602.342 40.6 601.292 41.25C600.242 41.85 599.717 42.7 599.717 43.8C599.717 44.65 599.967 45.4 600.467 46.05C601.017 46.65 601.942 47.275 603.242 47.925C604.592 48.525 606.492 49.325 608.942 50.325C611.392 51.275 613.467 52.275 615.167 53.325C616.917 54.325 618.267 55.575 619.217 57.075C620.167 58.575 620.642 60.475 620.642 62.775Z" fill="#565756"/>
</svg>
